<mxfile host="app.diagrams.net" modified="2023-07-07T06:30:01.812Z" agent="Mozilla/5.0 (Windows NT 10.0; Win64; x64) AppleWebKit/537.36 (KHTML, like Gecko) Chrome/114.0.0.0 Safari/537.36" etag="TFIYCvMDZDFY5pM68TQd" version="21.6.1" type="github">
  <diagram id="dy0lDEotBziau9VzKgvr" name="ページ1">
    <mxGraphModel dx="1034" dy="438" grid="1" gridSize="10" guides="1" tooltips="1" connect="1" arrows="1" fold="1" page="1" pageScale="1" pageWidth="1654" pageHeight="1169" math="0" shadow="0">
      <root>
        <mxCell id="WIyWlLk6GJQsqaUBKTNV-0" />
        <mxCell id="WIyWlLk6GJQsqaUBKTNV-1" parent="WIyWlLk6GJQsqaUBKTNV-0" />
        <mxCell id="TtT6zjxbn2nU0OrpLk1x-122" value="&lt;font color=&quot;#000000&quot;&gt;users&lt;/font&gt;" style="shape=table;startSize=30;container=1;collapsible=1;childLayout=tableLayout;fixedRows=1;rowLines=0;fontStyle=1;align=center;resizeLast=1;html=1;strokeColor=#457B9D;fontFamily=Helvetica;fontSize=12;fillColor=#A8DADC;labelBackgroundColor=none;fontColor=#1D3557;" parent="WIyWlLk6GJQsqaUBKTNV-1" vertex="1">
          <mxGeometry x="150" y="240" width="180" height="240" as="geometry" />
        </mxCell>
        <mxCell id="TtT6zjxbn2nU0OrpLk1x-123" value="" style="shape=tableRow;horizontal=0;startSize=0;swimlaneHead=0;swimlaneBody=0;fillColor=none;collapsible=0;dropTarget=0;points=[[0,0.5],[1,0.5]];portConstraint=eastwest;top=0;left=0;right=0;bottom=1;strokeColor=#457B9D;fontFamily=Helvetica;fontSize=12;fontColor=#1D3557;html=1;labelBackgroundColor=none;" parent="TtT6zjxbn2nU0OrpLk1x-122" vertex="1">
          <mxGeometry y="30" width="180" height="30" as="geometry" />
        </mxCell>
        <mxCell id="TtT6zjxbn2nU0OrpLk1x-124" value="PK" style="shape=partialRectangle;connectable=0;fillColor=none;top=0;left=0;bottom=0;right=0;fontStyle=1;overflow=hidden;whiteSpace=wrap;html=1;strokeColor=#457B9D;fontFamily=Helvetica;fontSize=12;fontColor=#1D3557;startSize=23;labelBackgroundColor=none;" parent="TtT6zjxbn2nU0OrpLk1x-123" vertex="1">
          <mxGeometry width="30" height="30" as="geometry">
            <mxRectangle width="30" height="30" as="alternateBounds" />
          </mxGeometry>
        </mxCell>
        <mxCell id="TtT6zjxbn2nU0OrpLk1x-125" value="id" style="shape=partialRectangle;connectable=0;fillColor=none;top=0;left=0;bottom=0;right=0;align=left;spacingLeft=6;fontStyle=5;overflow=hidden;whiteSpace=wrap;html=1;strokeColor=#457B9D;fontFamily=Helvetica;fontSize=12;fontColor=#1D3557;startSize=23;labelBackgroundColor=none;" parent="TtT6zjxbn2nU0OrpLk1x-123" vertex="1">
          <mxGeometry x="30" width="150" height="30" as="geometry">
            <mxRectangle width="150" height="30" as="alternateBounds" />
          </mxGeometry>
        </mxCell>
        <mxCell id="TtT6zjxbn2nU0OrpLk1x-126" value="" style="shape=tableRow;horizontal=0;startSize=0;swimlaneHead=0;swimlaneBody=0;fillColor=none;collapsible=0;dropTarget=0;points=[[0,0.5],[1,0.5]];portConstraint=eastwest;top=0;left=0;right=0;bottom=0;strokeColor=#457B9D;fontFamily=Helvetica;fontSize=12;fontColor=#1D3557;html=1;labelBackgroundColor=none;" parent="TtT6zjxbn2nU0OrpLk1x-122" vertex="1">
          <mxGeometry y="60" width="180" height="30" as="geometry" />
        </mxCell>
        <mxCell id="TtT6zjxbn2nU0OrpLk1x-127" value="" style="shape=partialRectangle;connectable=0;fillColor=none;top=0;left=0;bottom=0;right=0;editable=1;overflow=hidden;whiteSpace=wrap;html=1;strokeColor=#457B9D;fontFamily=Helvetica;fontSize=12;fontColor=#1D3557;startSize=23;labelBackgroundColor=none;" parent="TtT6zjxbn2nU0OrpLk1x-126" vertex="1">
          <mxGeometry width="30" height="30" as="geometry">
            <mxRectangle width="30" height="30" as="alternateBounds" />
          </mxGeometry>
        </mxCell>
        <mxCell id="TtT6zjxbn2nU0OrpLk1x-128" value="name" style="shape=partialRectangle;connectable=0;fillColor=none;top=0;left=0;bottom=0;right=0;align=left;spacingLeft=6;overflow=hidden;whiteSpace=wrap;html=1;strokeColor=#457B9D;fontFamily=Helvetica;fontSize=12;fontColor=#1D3557;startSize=23;labelBackgroundColor=none;" parent="TtT6zjxbn2nU0OrpLk1x-126" vertex="1">
          <mxGeometry x="30" width="150" height="30" as="geometry">
            <mxRectangle width="150" height="30" as="alternateBounds" />
          </mxGeometry>
        </mxCell>
        <mxCell id="TtT6zjxbn2nU0OrpLk1x-129" value="" style="shape=tableRow;horizontal=0;startSize=0;swimlaneHead=0;swimlaneBody=0;fillColor=none;collapsible=0;dropTarget=0;points=[[0,0.5],[1,0.5]];portConstraint=eastwest;top=0;left=0;right=0;bottom=0;strokeColor=#457B9D;fontFamily=Helvetica;fontSize=12;fontColor=#1D3557;html=1;labelBackgroundColor=none;" parent="TtT6zjxbn2nU0OrpLk1x-122" vertex="1">
          <mxGeometry y="90" width="180" height="30" as="geometry" />
        </mxCell>
        <mxCell id="TtT6zjxbn2nU0OrpLk1x-130" value="" style="shape=partialRectangle;connectable=0;fillColor=none;top=0;left=0;bottom=0;right=0;editable=1;overflow=hidden;whiteSpace=wrap;html=1;strokeColor=#457B9D;fontFamily=Helvetica;fontSize=12;fontColor=#1D3557;startSize=23;labelBackgroundColor=none;" parent="TtT6zjxbn2nU0OrpLk1x-129" vertex="1">
          <mxGeometry width="30" height="30" as="geometry">
            <mxRectangle width="30" height="30" as="alternateBounds" />
          </mxGeometry>
        </mxCell>
        <mxCell id="TtT6zjxbn2nU0OrpLk1x-131" value="email" style="shape=partialRectangle;connectable=0;fillColor=none;top=0;left=0;bottom=0;right=0;align=left;spacingLeft=6;overflow=hidden;whiteSpace=wrap;html=1;strokeColor=#457B9D;fontFamily=Helvetica;fontSize=12;fontColor=#1D3557;startSize=23;labelBackgroundColor=none;" parent="TtT6zjxbn2nU0OrpLk1x-129" vertex="1">
          <mxGeometry x="30" width="150" height="30" as="geometry">
            <mxRectangle width="150" height="30" as="alternateBounds" />
          </mxGeometry>
        </mxCell>
        <mxCell id="TtT6zjxbn2nU0OrpLk1x-132" value="" style="shape=tableRow;horizontal=0;startSize=0;swimlaneHead=0;swimlaneBody=0;fillColor=none;collapsible=0;dropTarget=0;points=[[0,0.5],[1,0.5]];portConstraint=eastwest;top=0;left=0;right=0;bottom=0;strokeColor=#457B9D;fontFamily=Helvetica;fontSize=12;fontColor=#1D3557;html=1;labelBackgroundColor=none;" parent="TtT6zjxbn2nU0OrpLk1x-122" vertex="1">
          <mxGeometry y="120" width="180" height="30" as="geometry" />
        </mxCell>
        <mxCell id="TtT6zjxbn2nU0OrpLk1x-133" value="" style="shape=partialRectangle;connectable=0;fillColor=none;top=0;left=0;bottom=0;right=0;editable=1;overflow=hidden;whiteSpace=wrap;html=1;strokeColor=#457B9D;fontFamily=Helvetica;fontSize=12;fontColor=#1D3557;startSize=23;labelBackgroundColor=none;" parent="TtT6zjxbn2nU0OrpLk1x-132" vertex="1">
          <mxGeometry width="30" height="30" as="geometry">
            <mxRectangle width="30" height="30" as="alternateBounds" />
          </mxGeometry>
        </mxCell>
        <mxCell id="TtT6zjxbn2nU0OrpLk1x-134" value="password" style="shape=partialRectangle;connectable=0;fillColor=none;top=0;left=0;bottom=0;right=0;align=left;spacingLeft=6;overflow=hidden;whiteSpace=wrap;html=1;strokeColor=#457B9D;fontFamily=Helvetica;fontSize=12;fontColor=#1D3557;startSize=23;labelBackgroundColor=none;" parent="TtT6zjxbn2nU0OrpLk1x-132" vertex="1">
          <mxGeometry x="30" width="150" height="30" as="geometry">
            <mxRectangle width="150" height="30" as="alternateBounds" />
          </mxGeometry>
        </mxCell>
        <mxCell id="TtT6zjxbn2nU0OrpLk1x-153" value="" style="shape=tableRow;horizontal=0;startSize=0;swimlaneHead=0;swimlaneBody=0;fillColor=none;collapsible=0;dropTarget=0;points=[[0,0.5],[1,0.5]];portConstraint=eastwest;top=0;left=0;right=0;bottom=0;strokeColor=#457B9D;fontFamily=Helvetica;fontSize=12;fontColor=#1D3557;html=1;labelBackgroundColor=none;" parent="TtT6zjxbn2nU0OrpLk1x-122" vertex="1">
          <mxGeometry y="150" width="180" height="30" as="geometry" />
        </mxCell>
        <mxCell id="TtT6zjxbn2nU0OrpLk1x-154" value="" style="shape=partialRectangle;connectable=0;fillColor=none;top=0;left=0;bottom=0;right=0;editable=1;overflow=hidden;whiteSpace=wrap;html=1;strokeColor=#457B9D;fontFamily=Helvetica;fontSize=12;fontColor=#1D3557;startSize=23;labelBackgroundColor=none;" parent="TtT6zjxbn2nU0OrpLk1x-153" vertex="1">
          <mxGeometry width="30" height="30" as="geometry">
            <mxRectangle width="30" height="30" as="alternateBounds" />
          </mxGeometry>
        </mxCell>
        <mxCell id="TtT6zjxbn2nU0OrpLk1x-155" value="introduction" style="shape=partialRectangle;connectable=0;fillColor=none;top=0;left=0;bottom=0;right=0;align=left;spacingLeft=6;overflow=hidden;whiteSpace=wrap;html=1;strokeColor=#457B9D;fontFamily=Helvetica;fontSize=12;fontColor=#1D3557;startSize=23;labelBackgroundColor=none;" parent="TtT6zjxbn2nU0OrpLk1x-153" vertex="1">
          <mxGeometry x="30" width="150" height="30" as="geometry">
            <mxRectangle width="150" height="30" as="alternateBounds" />
          </mxGeometry>
        </mxCell>
        <mxCell id="TtT6zjxbn2nU0OrpLk1x-156" value="" style="shape=tableRow;horizontal=0;startSize=0;swimlaneHead=0;swimlaneBody=0;fillColor=none;collapsible=0;dropTarget=0;points=[[0,0.5],[1,0.5]];portConstraint=eastwest;top=0;left=0;right=0;bottom=0;strokeColor=#457B9D;fontFamily=Helvetica;fontSize=12;fontColor=#1D3557;html=1;labelBackgroundColor=none;" parent="TtT6zjxbn2nU0OrpLk1x-122" vertex="1">
          <mxGeometry y="180" width="180" height="30" as="geometry" />
        </mxCell>
        <mxCell id="TtT6zjxbn2nU0OrpLk1x-157" value="" style="shape=partialRectangle;connectable=0;fillColor=none;top=0;left=0;bottom=0;right=0;editable=1;overflow=hidden;whiteSpace=wrap;html=1;strokeColor=#457B9D;fontFamily=Helvetica;fontSize=12;fontColor=#1D3557;startSize=23;labelBackgroundColor=none;" parent="TtT6zjxbn2nU0OrpLk1x-156" vertex="1">
          <mxGeometry width="30" height="30" as="geometry">
            <mxRectangle width="30" height="30" as="alternateBounds" />
          </mxGeometry>
        </mxCell>
        <mxCell id="TtT6zjxbn2nU0OrpLk1x-158" value="created_at" style="shape=partialRectangle;connectable=0;fillColor=none;top=0;left=0;bottom=0;right=0;align=left;spacingLeft=6;overflow=hidden;whiteSpace=wrap;html=1;strokeColor=#457B9D;fontFamily=Helvetica;fontSize=12;fontColor=#1D3557;startSize=23;labelBackgroundColor=none;" parent="TtT6zjxbn2nU0OrpLk1x-156" vertex="1">
          <mxGeometry x="30" width="150" height="30" as="geometry">
            <mxRectangle width="150" height="30" as="alternateBounds" />
          </mxGeometry>
        </mxCell>
        <mxCell id="TtT6zjxbn2nU0OrpLk1x-159" value="" style="shape=tableRow;horizontal=0;startSize=0;swimlaneHead=0;swimlaneBody=0;fillColor=none;collapsible=0;dropTarget=0;points=[[0,0.5],[1,0.5]];portConstraint=eastwest;top=0;left=0;right=0;bottom=0;strokeColor=#457B9D;fontFamily=Helvetica;fontSize=12;fontColor=#1D3557;html=1;labelBackgroundColor=none;" parent="TtT6zjxbn2nU0OrpLk1x-122" vertex="1">
          <mxGeometry y="210" width="180" height="30" as="geometry" />
        </mxCell>
        <mxCell id="TtT6zjxbn2nU0OrpLk1x-160" value="" style="shape=partialRectangle;connectable=0;fillColor=none;top=0;left=0;bottom=0;right=0;editable=1;overflow=hidden;whiteSpace=wrap;html=1;strokeColor=#457B9D;fontFamily=Helvetica;fontSize=12;fontColor=#1D3557;startSize=23;labelBackgroundColor=none;" parent="TtT6zjxbn2nU0OrpLk1x-159" vertex="1">
          <mxGeometry width="30" height="30" as="geometry">
            <mxRectangle width="30" height="30" as="alternateBounds" />
          </mxGeometry>
        </mxCell>
        <mxCell id="TtT6zjxbn2nU0OrpLk1x-161" value="updated_at" style="shape=partialRectangle;connectable=0;fillColor=none;top=0;left=0;bottom=0;right=0;align=left;spacingLeft=6;overflow=hidden;whiteSpace=wrap;html=1;strokeColor=#457B9D;fontFamily=Helvetica;fontSize=12;fontColor=#1D3557;startSize=23;labelBackgroundColor=none;" parent="TtT6zjxbn2nU0OrpLk1x-159" vertex="1">
          <mxGeometry x="30" width="150" height="30" as="geometry">
            <mxRectangle width="150" height="30" as="alternateBounds" />
          </mxGeometry>
        </mxCell>
        <mxCell id="TtT6zjxbn2nU0OrpLk1x-147" value="" style="shape=tableRow;horizontal=0;startSize=0;swimlaneHead=0;swimlaneBody=0;fillColor=none;collapsible=0;dropTarget=0;points=[[0,0.5],[1,0.5]];portConstraint=eastwest;top=0;left=0;right=0;bottom=0;strokeColor=#457B9D;fontFamily=Helvetica;fontSize=12;fontColor=#1D3557;html=1;labelBackgroundColor=none;" parent="WIyWlLk6GJQsqaUBKTNV-1" vertex="1">
          <mxGeometry x="60" y="470" width="180" height="30" as="geometry" />
        </mxCell>
        <mxCell id="TtT6zjxbn2nU0OrpLk1x-148" value="" style="shape=partialRectangle;connectable=0;fillColor=none;top=0;left=0;bottom=0;right=0;editable=1;overflow=hidden;whiteSpace=wrap;html=1;strokeColor=#457B9D;fontFamily=Helvetica;fontSize=12;fontColor=#1D3557;startSize=23;labelBackgroundColor=none;" parent="TtT6zjxbn2nU0OrpLk1x-147" vertex="1">
          <mxGeometry width="30" height="30" as="geometry">
            <mxRectangle width="30" height="30" as="alternateBounds" />
          </mxGeometry>
        </mxCell>
        <mxCell id="TtT6zjxbn2nU0OrpLk1x-150" value="" style="shape=tableRow;horizontal=0;startSize=0;swimlaneHead=0;swimlaneBody=0;fillColor=none;collapsible=0;dropTarget=0;points=[[0,0.5],[1,0.5]];portConstraint=eastwest;top=0;left=0;right=0;bottom=0;strokeColor=#457B9D;fontFamily=Helvetica;fontSize=12;fontColor=#1D3557;html=1;labelBackgroundColor=none;" parent="WIyWlLk6GJQsqaUBKTNV-1" vertex="1">
          <mxGeometry x="60" y="470" width="180" height="30" as="geometry" />
        </mxCell>
        <mxCell id="TtT6zjxbn2nU0OrpLk1x-151" value="" style="shape=partialRectangle;connectable=0;fillColor=none;top=0;left=0;bottom=0;right=0;editable=1;overflow=hidden;whiteSpace=wrap;html=1;strokeColor=#457B9D;fontFamily=Helvetica;fontSize=12;fontColor=#1D3557;startSize=23;labelBackgroundColor=none;" parent="TtT6zjxbn2nU0OrpLk1x-150" vertex="1">
          <mxGeometry width="30" height="30" as="geometry">
            <mxRectangle width="30" height="30" as="alternateBounds" />
          </mxGeometry>
        </mxCell>
        <mxCell id="TtT6zjxbn2nU0OrpLk1x-336" value="&lt;font color=&quot;#000000&quot;&gt;chats&lt;/font&gt;" style="shape=table;startSize=30;container=1;collapsible=1;childLayout=tableLayout;fixedRows=1;rowLines=0;fontStyle=1;align=center;resizeLast=1;html=1;strokeColor=#457B9D;fontFamily=Helvetica;fontSize=12;fillColor=#A8DADC;labelBackgroundColor=none;fontColor=#1D3557;" parent="WIyWlLk6GJQsqaUBKTNV-1" vertex="1">
          <mxGeometry x="480" y="550" width="180" height="210" as="geometry" />
        </mxCell>
        <mxCell id="TtT6zjxbn2nU0OrpLk1x-337" value="" style="shape=tableRow;horizontal=0;startSize=0;swimlaneHead=0;swimlaneBody=0;fillColor=none;collapsible=0;dropTarget=0;points=[[0,0.5],[1,0.5]];portConstraint=eastwest;top=0;left=0;right=0;bottom=1;strokeColor=#457B9D;fontFamily=Helvetica;fontSize=12;fontColor=#1D3557;html=1;labelBackgroundColor=none;" parent="TtT6zjxbn2nU0OrpLk1x-336" vertex="1">
          <mxGeometry y="30" width="180" height="30" as="geometry" />
        </mxCell>
        <mxCell id="TtT6zjxbn2nU0OrpLk1x-338" value="PK" style="shape=partialRectangle;connectable=0;fillColor=none;top=0;left=0;bottom=0;right=0;fontStyle=1;overflow=hidden;whiteSpace=wrap;html=1;strokeColor=#457B9D;fontFamily=Helvetica;fontSize=12;fontColor=#1D3557;startSize=23;labelBackgroundColor=none;" parent="TtT6zjxbn2nU0OrpLk1x-337" vertex="1">
          <mxGeometry width="30" height="30" as="geometry">
            <mxRectangle width="30" height="30" as="alternateBounds" />
          </mxGeometry>
        </mxCell>
        <mxCell id="TtT6zjxbn2nU0OrpLk1x-339" value="id" style="shape=partialRectangle;connectable=0;fillColor=none;top=0;left=0;bottom=0;right=0;align=left;spacingLeft=6;fontStyle=5;overflow=hidden;whiteSpace=wrap;html=1;strokeColor=#457B9D;fontFamily=Helvetica;fontSize=12;fontColor=#1D3557;startSize=23;labelBackgroundColor=none;" parent="TtT6zjxbn2nU0OrpLk1x-337" vertex="1">
          <mxGeometry x="30" width="150" height="30" as="geometry">
            <mxRectangle width="150" height="30" as="alternateBounds" />
          </mxGeometry>
        </mxCell>
        <mxCell id="TtT6zjxbn2nU0OrpLk1x-343" value="" style="shape=tableRow;horizontal=0;startSize=0;swimlaneHead=0;swimlaneBody=0;fillColor=none;collapsible=0;dropTarget=0;points=[[0,0.5],[1,0.5]];portConstraint=eastwest;top=0;left=0;right=0;bottom=0;strokeColor=#457B9D;fontFamily=Helvetica;fontSize=12;fontColor=#1D3557;html=1;labelBackgroundColor=none;" parent="TtT6zjxbn2nU0OrpLk1x-336" vertex="1">
          <mxGeometry y="60" width="180" height="30" as="geometry" />
        </mxCell>
        <mxCell id="TtT6zjxbn2nU0OrpLk1x-344" value="&lt;b&gt;FK&lt;/b&gt;" style="shape=partialRectangle;connectable=0;fillColor=none;top=0;left=0;bottom=0;right=0;editable=1;overflow=hidden;whiteSpace=wrap;html=1;strokeColor=#457B9D;fontFamily=Helvetica;fontSize=12;fontColor=#1D3557;startSize=23;labelBackgroundColor=none;" parent="TtT6zjxbn2nU0OrpLk1x-343" vertex="1">
          <mxGeometry width="30" height="30" as="geometry">
            <mxRectangle width="30" height="30" as="alternateBounds" />
          </mxGeometry>
        </mxCell>
        <mxCell id="TtT6zjxbn2nU0OrpLk1x-345" value="&lt;u&gt;&lt;b&gt;user_id&lt;/b&gt;&lt;/u&gt;" style="shape=partialRectangle;connectable=0;fillColor=none;top=0;left=0;bottom=0;right=0;align=left;spacingLeft=6;overflow=hidden;whiteSpace=wrap;html=1;strokeColor=#457B9D;fontFamily=Helvetica;fontSize=12;fontColor=#1D3557;startSize=23;labelBackgroundColor=none;" parent="TtT6zjxbn2nU0OrpLk1x-343" vertex="1">
          <mxGeometry x="30" width="150" height="30" as="geometry">
            <mxRectangle width="150" height="30" as="alternateBounds" />
          </mxGeometry>
        </mxCell>
        <mxCell id="TtT6zjxbn2nU0OrpLk1x-340" value="" style="shape=tableRow;horizontal=0;startSize=0;swimlaneHead=0;swimlaneBody=0;fillColor=none;collapsible=0;dropTarget=0;points=[[0,0.5],[1,0.5]];portConstraint=eastwest;top=0;left=0;right=0;bottom=1;strokeColor=#457B9D;fontFamily=Helvetica;fontSize=12;fontColor=#1D3557;html=1;labelBackgroundColor=none;" parent="TtT6zjxbn2nU0OrpLk1x-336" vertex="1">
          <mxGeometry y="90" width="180" height="30" as="geometry" />
        </mxCell>
        <mxCell id="TtT6zjxbn2nU0OrpLk1x-341" value="FK" style="shape=partialRectangle;connectable=0;fillColor=none;top=0;left=0;bottom=0;right=0;fontStyle=1;overflow=hidden;whiteSpace=wrap;html=1;strokeColor=#457B9D;fontFamily=Helvetica;fontSize=12;fontColor=#1D3557;startSize=23;labelBackgroundColor=none;" parent="TtT6zjxbn2nU0OrpLk1x-340" vertex="1">
          <mxGeometry width="30" height="30" as="geometry">
            <mxRectangle width="30" height="30" as="alternateBounds" />
          </mxGeometry>
        </mxCell>
        <mxCell id="TtT6zjxbn2nU0OrpLk1x-342" value="room_id" style="shape=partialRectangle;connectable=0;fillColor=none;top=0;left=0;bottom=0;right=0;align=left;spacingLeft=6;fontStyle=5;overflow=hidden;whiteSpace=wrap;html=1;strokeColor=#457B9D;fontFamily=Helvetica;fontSize=12;fontColor=#1D3557;startSize=23;labelBackgroundColor=none;" parent="TtT6zjxbn2nU0OrpLk1x-340" vertex="1">
          <mxGeometry x="30" width="150" height="30" as="geometry">
            <mxRectangle width="150" height="30" as="alternateBounds" />
          </mxGeometry>
        </mxCell>
        <mxCell id="TtT6zjxbn2nU0OrpLk1x-346" value="" style="shape=tableRow;horizontal=0;startSize=0;swimlaneHead=0;swimlaneBody=0;fillColor=none;collapsible=0;dropTarget=0;points=[[0,0.5],[1,0.5]];portConstraint=eastwest;top=0;left=0;right=0;bottom=0;strokeColor=#457B9D;fontFamily=Helvetica;fontSize=12;fontColor=#1D3557;html=1;labelBackgroundColor=none;" parent="TtT6zjxbn2nU0OrpLk1x-336" vertex="1">
          <mxGeometry y="120" width="180" height="30" as="geometry" />
        </mxCell>
        <mxCell id="TtT6zjxbn2nU0OrpLk1x-347" value="" style="shape=partialRectangle;connectable=0;fillColor=none;top=0;left=0;bottom=0;right=0;editable=1;overflow=hidden;whiteSpace=wrap;html=1;strokeColor=#457B9D;fontFamily=Helvetica;fontSize=12;fontColor=#1D3557;startSize=23;labelBackgroundColor=none;" parent="TtT6zjxbn2nU0OrpLk1x-346" vertex="1">
          <mxGeometry width="30" height="30" as="geometry">
            <mxRectangle width="30" height="30" as="alternateBounds" />
          </mxGeometry>
        </mxCell>
        <mxCell id="TtT6zjxbn2nU0OrpLk1x-348" value="message" style="shape=partialRectangle;connectable=0;fillColor=none;top=0;left=0;bottom=0;right=0;align=left;spacingLeft=6;overflow=hidden;whiteSpace=wrap;html=1;strokeColor=#457B9D;fontFamily=Helvetica;fontSize=12;fontColor=#1D3557;startSize=23;labelBackgroundColor=none;" parent="TtT6zjxbn2nU0OrpLk1x-346" vertex="1">
          <mxGeometry x="30" width="150" height="30" as="geometry">
            <mxRectangle width="150" height="30" as="alternateBounds" />
          </mxGeometry>
        </mxCell>
        <mxCell id="TtT6zjxbn2nU0OrpLk1x-349" value="" style="shape=tableRow;horizontal=0;startSize=0;swimlaneHead=0;swimlaneBody=0;fillColor=none;collapsible=0;dropTarget=0;points=[[0,0.5],[1,0.5]];portConstraint=eastwest;top=0;left=0;right=0;bottom=0;strokeColor=#457B9D;fontFamily=Helvetica;fontSize=12;fontColor=#1D3557;html=1;labelBackgroundColor=none;" parent="TtT6zjxbn2nU0OrpLk1x-336" vertex="1">
          <mxGeometry y="150" width="180" height="30" as="geometry" />
        </mxCell>
        <mxCell id="TtT6zjxbn2nU0OrpLk1x-350" value="" style="shape=partialRectangle;connectable=0;fillColor=none;top=0;left=0;bottom=0;right=0;editable=1;overflow=hidden;whiteSpace=wrap;html=1;strokeColor=#457B9D;fontFamily=Helvetica;fontSize=12;fontColor=#1D3557;startSize=23;labelBackgroundColor=none;" parent="TtT6zjxbn2nU0OrpLk1x-349" vertex="1">
          <mxGeometry width="30" height="30" as="geometry">
            <mxRectangle width="30" height="30" as="alternateBounds" />
          </mxGeometry>
        </mxCell>
        <mxCell id="TtT6zjxbn2nU0OrpLk1x-351" value="created_at" style="shape=partialRectangle;connectable=0;fillColor=none;top=0;left=0;bottom=0;right=0;align=left;spacingLeft=6;overflow=hidden;whiteSpace=wrap;html=1;strokeColor=#457B9D;fontFamily=Helvetica;fontSize=12;fontColor=#1D3557;startSize=23;labelBackgroundColor=none;" parent="TtT6zjxbn2nU0OrpLk1x-349" vertex="1">
          <mxGeometry x="30" width="150" height="30" as="geometry">
            <mxRectangle width="150" height="30" as="alternateBounds" />
          </mxGeometry>
        </mxCell>
        <mxCell id="TtT6zjxbn2nU0OrpLk1x-352" value="" style="shape=tableRow;horizontal=0;startSize=0;swimlaneHead=0;swimlaneBody=0;fillColor=none;collapsible=0;dropTarget=0;points=[[0,0.5],[1,0.5]];portConstraint=eastwest;top=0;left=0;right=0;bottom=0;strokeColor=#457B9D;fontFamily=Helvetica;fontSize=12;fontColor=#1D3557;html=1;labelBackgroundColor=none;" parent="TtT6zjxbn2nU0OrpLk1x-336" vertex="1">
          <mxGeometry y="180" width="180" height="30" as="geometry" />
        </mxCell>
        <mxCell id="TtT6zjxbn2nU0OrpLk1x-353" value="" style="shape=partialRectangle;connectable=0;fillColor=none;top=0;left=0;bottom=0;right=0;editable=1;overflow=hidden;whiteSpace=wrap;html=1;strokeColor=#457B9D;fontFamily=Helvetica;fontSize=12;fontColor=#1D3557;startSize=23;labelBackgroundColor=none;" parent="TtT6zjxbn2nU0OrpLk1x-352" vertex="1">
          <mxGeometry width="30" height="30" as="geometry">
            <mxRectangle width="30" height="30" as="alternateBounds" />
          </mxGeometry>
        </mxCell>
        <mxCell id="TtT6zjxbn2nU0OrpLk1x-354" value="updated_at" style="shape=partialRectangle;connectable=0;fillColor=none;top=0;left=0;bottom=0;right=0;align=left;spacingLeft=6;overflow=hidden;whiteSpace=wrap;html=1;strokeColor=#457B9D;fontFamily=Helvetica;fontSize=12;fontColor=#1D3557;startSize=23;labelBackgroundColor=none;" parent="TtT6zjxbn2nU0OrpLk1x-352" vertex="1">
          <mxGeometry x="30" width="150" height="30" as="geometry">
            <mxRectangle width="150" height="30" as="alternateBounds" />
          </mxGeometry>
        </mxCell>
        <mxCell id="TtT6zjxbn2nU0OrpLk1x-420" value="&lt;font color=&quot;#000000&quot;&gt;rooms&lt;/font&gt;" style="shape=table;startSize=30;container=1;collapsible=1;childLayout=tableLayout;fixedRows=1;rowLines=0;fontStyle=1;align=center;resizeLast=1;html=1;strokeColor=#457B9D;fontFamily=Helvetica;fontSize=12;fillColor=#A8DADC;labelBackgroundColor=none;fontColor=#1D3557;" parent="WIyWlLk6GJQsqaUBKTNV-1" vertex="1">
          <mxGeometry x="480" y="320" width="180" height="120" as="geometry" />
        </mxCell>
        <mxCell id="TtT6zjxbn2nU0OrpLk1x-421" value="" style="shape=tableRow;horizontal=0;startSize=0;swimlaneHead=0;swimlaneBody=0;fillColor=none;collapsible=0;dropTarget=0;points=[[0,0.5],[1,0.5]];portConstraint=eastwest;top=0;left=0;right=0;bottom=1;strokeColor=#457B9D;fontFamily=Helvetica;fontSize=12;fontColor=#1D3557;html=1;labelBackgroundColor=none;" parent="TtT6zjxbn2nU0OrpLk1x-420" vertex="1">
          <mxGeometry y="30" width="180" height="30" as="geometry" />
        </mxCell>
        <mxCell id="TtT6zjxbn2nU0OrpLk1x-422" value="PK" style="shape=partialRectangle;connectable=0;fillColor=none;top=0;left=0;bottom=0;right=0;fontStyle=1;overflow=hidden;whiteSpace=wrap;html=1;strokeColor=#457B9D;fontFamily=Helvetica;fontSize=12;fontColor=#1D3557;startSize=23;labelBackgroundColor=none;" parent="TtT6zjxbn2nU0OrpLk1x-421" vertex="1">
          <mxGeometry width="30" height="30" as="geometry">
            <mxRectangle width="30" height="30" as="alternateBounds" />
          </mxGeometry>
        </mxCell>
        <mxCell id="TtT6zjxbn2nU0OrpLk1x-423" value="id" style="shape=partialRectangle;connectable=0;fillColor=none;top=0;left=0;bottom=0;right=0;align=left;spacingLeft=6;fontStyle=5;overflow=hidden;whiteSpace=wrap;html=1;strokeColor=#457B9D;fontFamily=Helvetica;fontSize=12;fontColor=#1D3557;startSize=23;labelBackgroundColor=none;" parent="TtT6zjxbn2nU0OrpLk1x-421" vertex="1">
          <mxGeometry x="30" width="150" height="30" as="geometry">
            <mxRectangle width="150" height="30" as="alternateBounds" />
          </mxGeometry>
        </mxCell>
        <mxCell id="TtT6zjxbn2nU0OrpLk1x-436" value="" style="shape=tableRow;horizontal=0;startSize=0;swimlaneHead=0;swimlaneBody=0;fillColor=none;collapsible=0;dropTarget=0;points=[[0,0.5],[1,0.5]];portConstraint=eastwest;top=0;left=0;right=0;bottom=0;strokeColor=#457B9D;fontFamily=Helvetica;fontSize=12;fontColor=#1D3557;html=1;labelBackgroundColor=none;" parent="TtT6zjxbn2nU0OrpLk1x-420" vertex="1">
          <mxGeometry y="60" width="180" height="30" as="geometry" />
        </mxCell>
        <mxCell id="TtT6zjxbn2nU0OrpLk1x-437" value="" style="shape=partialRectangle;connectable=0;fillColor=none;top=0;left=0;bottom=0;right=0;editable=1;overflow=hidden;whiteSpace=wrap;html=1;strokeColor=#457B9D;fontFamily=Helvetica;fontSize=12;fontColor=#1D3557;startSize=23;labelBackgroundColor=none;" parent="TtT6zjxbn2nU0OrpLk1x-436" vertex="1">
          <mxGeometry width="30" height="30" as="geometry">
            <mxRectangle width="30" height="30" as="alternateBounds" />
          </mxGeometry>
        </mxCell>
        <mxCell id="TtT6zjxbn2nU0OrpLk1x-438" value="created_at" style="shape=partialRectangle;connectable=0;fillColor=none;top=0;left=0;bottom=0;right=0;align=left;spacingLeft=6;overflow=hidden;whiteSpace=wrap;html=1;strokeColor=#457B9D;fontFamily=Helvetica;fontSize=12;fontColor=#1D3557;startSize=23;labelBackgroundColor=none;" parent="TtT6zjxbn2nU0OrpLk1x-436" vertex="1">
          <mxGeometry x="30" width="150" height="30" as="geometry">
            <mxRectangle width="150" height="30" as="alternateBounds" />
          </mxGeometry>
        </mxCell>
        <mxCell id="TtT6zjxbn2nU0OrpLk1x-439" value="" style="shape=tableRow;horizontal=0;startSize=0;swimlaneHead=0;swimlaneBody=0;fillColor=none;collapsible=0;dropTarget=0;points=[[0,0.5],[1,0.5]];portConstraint=eastwest;top=0;left=0;right=0;bottom=0;strokeColor=#457B9D;fontFamily=Helvetica;fontSize=12;fontColor=#1D3557;html=1;labelBackgroundColor=none;" parent="TtT6zjxbn2nU0OrpLk1x-420" vertex="1">
          <mxGeometry y="90" width="180" height="30" as="geometry" />
        </mxCell>
        <mxCell id="TtT6zjxbn2nU0OrpLk1x-440" value="" style="shape=partialRectangle;connectable=0;fillColor=none;top=0;left=0;bottom=0;right=0;editable=1;overflow=hidden;whiteSpace=wrap;html=1;strokeColor=#457B9D;fontFamily=Helvetica;fontSize=12;fontColor=#1D3557;startSize=23;labelBackgroundColor=none;" parent="TtT6zjxbn2nU0OrpLk1x-439" vertex="1">
          <mxGeometry width="30" height="30" as="geometry">
            <mxRectangle width="30" height="30" as="alternateBounds" />
          </mxGeometry>
        </mxCell>
        <mxCell id="TtT6zjxbn2nU0OrpLk1x-441" value="updated_at" style="shape=partialRectangle;connectable=0;fillColor=none;top=0;left=0;bottom=0;right=0;align=left;spacingLeft=6;overflow=hidden;whiteSpace=wrap;html=1;strokeColor=#457B9D;fontFamily=Helvetica;fontSize=12;fontColor=#1D3557;startSize=23;labelBackgroundColor=none;" parent="TtT6zjxbn2nU0OrpLk1x-439" vertex="1">
          <mxGeometry x="30" width="150" height="30" as="geometry">
            <mxRectangle width="150" height="30" as="alternateBounds" />
          </mxGeometry>
        </mxCell>
        <mxCell id="TtT6zjxbn2nU0OrpLk1x-470" value="" style="shape=tableRow;horizontal=0;startSize=0;swimlaneHead=0;swimlaneBody=0;fillColor=none;collapsible=0;dropTarget=0;points=[[0,0.5],[1,0.5]];portConstraint=eastwest;top=0;left=0;right=0;bottom=0;strokeColor=#457B9D;fontFamily=Helvetica;fontSize=12;fontColor=#1D3557;html=1;labelBackgroundColor=none;" parent="WIyWlLk6GJQsqaUBKTNV-1" vertex="1">
          <mxGeometry x="720" y="500" width="180" height="30" as="geometry" />
        </mxCell>
        <mxCell id="TtT6zjxbn2nU0OrpLk1x-471" value="" style="shape=partialRectangle;connectable=0;fillColor=none;top=0;left=0;bottom=0;right=0;editable=1;overflow=hidden;whiteSpace=wrap;html=1;strokeColor=#457B9D;fontFamily=Helvetica;fontSize=12;fontColor=#1D3557;startSize=23;labelBackgroundColor=none;" parent="TtT6zjxbn2nU0OrpLk1x-470" vertex="1">
          <mxGeometry width="30" height="30" as="geometry">
            <mxRectangle width="30" height="30" as="alternateBounds" />
          </mxGeometry>
        </mxCell>
        <mxCell id="TtT6zjxbn2nU0OrpLk1x-473" value="&lt;font color=&quot;#000000&quot;&gt;user_rooms&lt;/font&gt;" style="shape=table;startSize=30;container=1;collapsible=1;childLayout=tableLayout;fixedRows=1;rowLines=0;fontStyle=1;align=center;resizeLast=1;html=1;fontFamily=Helvetica;fontSize=12;fillColor=#A8DADC;strokeColor=#457B9D;labelBackgroundColor=none;fontColor=#1D3557;" parent="WIyWlLk6GJQsqaUBKTNV-1" vertex="1">
          <mxGeometry x="480" y="30" width="180" height="180" as="geometry" />
        </mxCell>
        <mxCell id="TtT6zjxbn2nU0OrpLk1x-474" value="" style="shape=tableRow;horizontal=0;startSize=0;swimlaneHead=0;swimlaneBody=0;fillColor=none;collapsible=0;dropTarget=0;points=[[0,0.5],[1,0.5]];portConstraint=eastwest;top=0;left=0;right=0;bottom=1;strokeColor=#457B9D;fontFamily=Helvetica;fontSize=12;fontColor=#1D3557;html=1;labelBackgroundColor=none;" parent="TtT6zjxbn2nU0OrpLk1x-473" vertex="1">
          <mxGeometry y="30" width="180" height="30" as="geometry" />
        </mxCell>
        <mxCell id="TtT6zjxbn2nU0OrpLk1x-475" value="PK" style="shape=partialRectangle;connectable=0;fillColor=none;top=0;left=0;bottom=0;right=0;fontStyle=1;overflow=hidden;whiteSpace=wrap;html=1;strokeColor=#457B9D;fontFamily=Helvetica;fontSize=12;fontColor=#1D3557;startSize=23;labelBackgroundColor=none;" parent="TtT6zjxbn2nU0OrpLk1x-474" vertex="1">
          <mxGeometry width="30" height="30" as="geometry">
            <mxRectangle width="30" height="30" as="alternateBounds" />
          </mxGeometry>
        </mxCell>
        <mxCell id="TtT6zjxbn2nU0OrpLk1x-476" value="id" style="shape=partialRectangle;connectable=0;fillColor=none;top=0;left=0;bottom=0;right=0;align=left;spacingLeft=6;fontStyle=5;overflow=hidden;whiteSpace=wrap;html=1;strokeColor=#457B9D;fontFamily=Helvetica;fontSize=12;fontColor=#1D3557;startSize=23;labelBackgroundColor=none;" parent="TtT6zjxbn2nU0OrpLk1x-474" vertex="1">
          <mxGeometry x="30" width="150" height="30" as="geometry">
            <mxRectangle width="150" height="30" as="alternateBounds" />
          </mxGeometry>
        </mxCell>
        <mxCell id="TtT6zjxbn2nU0OrpLk1x-477" value="" style="shape=tableRow;horizontal=0;startSize=0;swimlaneHead=0;swimlaneBody=0;fillColor=none;collapsible=0;dropTarget=0;points=[[0,0.5],[1,0.5]];portConstraint=eastwest;top=0;left=0;right=0;bottom=0;strokeColor=#457B9D;fontFamily=Helvetica;fontSize=12;fontColor=#1D3557;html=1;labelBackgroundColor=none;" parent="TtT6zjxbn2nU0OrpLk1x-473" vertex="1">
          <mxGeometry y="60" width="180" height="30" as="geometry" />
        </mxCell>
        <mxCell id="TtT6zjxbn2nU0OrpLk1x-478" value="&lt;b&gt;FK&lt;/b&gt;" style="shape=partialRectangle;connectable=0;fillColor=none;top=0;left=0;bottom=0;right=0;editable=1;overflow=hidden;whiteSpace=wrap;html=1;strokeColor=#457B9D;fontFamily=Helvetica;fontSize=12;fontColor=#1D3557;startSize=23;labelBackgroundColor=none;" parent="TtT6zjxbn2nU0OrpLk1x-477" vertex="1">
          <mxGeometry width="30" height="30" as="geometry">
            <mxRectangle width="30" height="30" as="alternateBounds" />
          </mxGeometry>
        </mxCell>
        <mxCell id="TtT6zjxbn2nU0OrpLk1x-479" value="&lt;u&gt;&lt;b&gt;user_id&lt;/b&gt;&lt;/u&gt;" style="shape=partialRectangle;connectable=0;fillColor=none;top=0;left=0;bottom=0;right=0;align=left;spacingLeft=6;overflow=hidden;whiteSpace=wrap;html=1;strokeColor=#457B9D;fontFamily=Helvetica;fontSize=12;fontColor=#1D3557;startSize=23;labelBackgroundColor=none;" parent="TtT6zjxbn2nU0OrpLk1x-477" vertex="1">
          <mxGeometry x="30" width="150" height="30" as="geometry">
            <mxRectangle width="150" height="30" as="alternateBounds" />
          </mxGeometry>
        </mxCell>
        <mxCell id="TtT6zjxbn2nU0OrpLk1x-480" value="" style="shape=tableRow;horizontal=0;startSize=0;swimlaneHead=0;swimlaneBody=0;fillColor=none;collapsible=0;dropTarget=0;points=[[0,0.5],[1,0.5]];portConstraint=eastwest;top=0;left=0;right=0;bottom=1;strokeColor=#457B9D;fontFamily=Helvetica;fontSize=12;fontColor=#1D3557;html=1;labelBackgroundColor=none;" parent="TtT6zjxbn2nU0OrpLk1x-473" vertex="1">
          <mxGeometry y="90" width="180" height="30" as="geometry" />
        </mxCell>
        <mxCell id="TtT6zjxbn2nU0OrpLk1x-481" value="FK" style="shape=partialRectangle;connectable=0;fillColor=none;top=0;left=0;bottom=0;right=0;fontStyle=1;overflow=hidden;whiteSpace=wrap;html=1;strokeColor=#457B9D;fontFamily=Helvetica;fontSize=12;fontColor=#1D3557;startSize=23;labelBackgroundColor=none;" parent="TtT6zjxbn2nU0OrpLk1x-480" vertex="1">
          <mxGeometry width="30" height="30" as="geometry">
            <mxRectangle width="30" height="30" as="alternateBounds" />
          </mxGeometry>
        </mxCell>
        <mxCell id="TtT6zjxbn2nU0OrpLk1x-482" value="room_id" style="shape=partialRectangle;connectable=0;fillColor=none;top=0;left=0;bottom=0;right=0;align=left;spacingLeft=6;fontStyle=5;overflow=hidden;whiteSpace=wrap;html=1;strokeColor=#457B9D;fontFamily=Helvetica;fontSize=12;fontColor=#1D3557;startSize=23;labelBackgroundColor=none;" parent="TtT6zjxbn2nU0OrpLk1x-480" vertex="1">
          <mxGeometry x="30" width="150" height="30" as="geometry">
            <mxRectangle width="150" height="30" as="alternateBounds" />
          </mxGeometry>
        </mxCell>
        <mxCell id="TtT6zjxbn2nU0OrpLk1x-495" value="" style="shape=tableRow;horizontal=0;startSize=0;swimlaneHead=0;swimlaneBody=0;fillColor=none;collapsible=0;dropTarget=0;points=[[0,0.5],[1,0.5]];portConstraint=eastwest;top=0;left=0;right=0;bottom=0;strokeColor=#457B9D;fontFamily=Helvetica;fontSize=12;fontColor=#1D3557;html=1;labelBackgroundColor=none;" parent="TtT6zjxbn2nU0OrpLk1x-473" vertex="1">
          <mxGeometry y="120" width="180" height="30" as="geometry" />
        </mxCell>
        <mxCell id="TtT6zjxbn2nU0OrpLk1x-496" value="" style="shape=partialRectangle;connectable=0;fillColor=none;top=0;left=0;bottom=0;right=0;editable=1;overflow=hidden;whiteSpace=wrap;html=1;strokeColor=#457B9D;fontFamily=Helvetica;fontSize=12;fontColor=#1D3557;startSize=23;labelBackgroundColor=none;" parent="TtT6zjxbn2nU0OrpLk1x-495" vertex="1">
          <mxGeometry width="30" height="30" as="geometry">
            <mxRectangle width="30" height="30" as="alternateBounds" />
          </mxGeometry>
        </mxCell>
        <mxCell id="TtT6zjxbn2nU0OrpLk1x-497" value="created_at" style="shape=partialRectangle;connectable=0;fillColor=none;top=0;left=0;bottom=0;right=0;align=left;spacingLeft=6;overflow=hidden;whiteSpace=wrap;html=1;strokeColor=#457B9D;fontFamily=Helvetica;fontSize=12;fontColor=#1D3557;startSize=23;labelBackgroundColor=none;" parent="TtT6zjxbn2nU0OrpLk1x-495" vertex="1">
          <mxGeometry x="30" width="150" height="30" as="geometry">
            <mxRectangle width="150" height="30" as="alternateBounds" />
          </mxGeometry>
        </mxCell>
        <mxCell id="TtT6zjxbn2nU0OrpLk1x-498" value="" style="shape=tableRow;horizontal=0;startSize=0;swimlaneHead=0;swimlaneBody=0;fillColor=none;collapsible=0;dropTarget=0;points=[[0,0.5],[1,0.5]];portConstraint=eastwest;top=0;left=0;right=0;bottom=0;strokeColor=#457B9D;fontFamily=Helvetica;fontSize=12;fontColor=#1D3557;html=1;labelBackgroundColor=none;" parent="TtT6zjxbn2nU0OrpLk1x-473" vertex="1">
          <mxGeometry y="150" width="180" height="30" as="geometry" />
        </mxCell>
        <mxCell id="TtT6zjxbn2nU0OrpLk1x-499" value="" style="shape=partialRectangle;connectable=0;fillColor=none;top=0;left=0;bottom=0;right=0;editable=1;overflow=hidden;whiteSpace=wrap;html=1;strokeColor=#457B9D;fontFamily=Helvetica;fontSize=12;fontColor=#1D3557;startSize=23;labelBackgroundColor=none;" parent="TtT6zjxbn2nU0OrpLk1x-498" vertex="1">
          <mxGeometry width="30" height="30" as="geometry">
            <mxRectangle width="30" height="30" as="alternateBounds" />
          </mxGeometry>
        </mxCell>
        <mxCell id="TtT6zjxbn2nU0OrpLk1x-500" value="updated_at" style="shape=partialRectangle;connectable=0;fillColor=none;top=0;left=0;bottom=0;right=0;align=left;spacingLeft=6;overflow=hidden;whiteSpace=wrap;html=1;strokeColor=#457B9D;fontFamily=Helvetica;fontSize=12;fontColor=#1D3557;startSize=23;labelBackgroundColor=none;" parent="TtT6zjxbn2nU0OrpLk1x-498" vertex="1">
          <mxGeometry x="30" width="150" height="30" as="geometry">
            <mxRectangle width="150" height="30" as="alternateBounds" />
          </mxGeometry>
        </mxCell>
        <mxCell id="TtT6zjxbn2nU0OrpLk1x-501" value="" style="edgeStyle=orthogonalEdgeStyle;fontSize=12;html=1;endArrow=ERzeroToMany;endFill=1;fontFamily=Helvetica;fontColor=default;startSize=23;rounded=1;startArrow=ERone;startFill=0;exitX=0.5;exitY=0;exitDx=0;exitDy=0;entryX=0;entryY=0.5;entryDx=0;entryDy=0;labelBackgroundColor=none;strokeColor=#457B9D;" parent="WIyWlLk6GJQsqaUBKTNV-1" source="TtT6zjxbn2nU0OrpLk1x-122" target="TtT6zjxbn2nU0OrpLk1x-477" edge="1">
          <mxGeometry width="100" height="100" relative="1" as="geometry">
            <mxPoint x="460" y="330" as="sourcePoint" />
            <mxPoint x="590" y="600" as="targetPoint" />
            <Array as="points">
              <mxPoint x="240" y="105" />
            </Array>
          </mxGeometry>
        </mxCell>
        <mxCell id="7dbq3NUYPPFsFOSEUiva-1" value="" style="fontSize=12;html=1;endArrow=ERzeroToMany;endFill=1;fontFamily=Helvetica;fontColor=default;startSize=23;rounded=1;startArrow=ERone;startFill=0;exitX=0.5;exitY=0;exitDx=0;exitDy=0;labelBackgroundColor=none;strokeColor=#457B9D;" parent="WIyWlLk6GJQsqaUBKTNV-1" source="TtT6zjxbn2nU0OrpLk1x-420" target="TtT6zjxbn2nU0OrpLk1x-498" edge="1">
          <mxGeometry width="100" height="100" relative="1" as="geometry">
            <mxPoint x="240.00000000000003" y="320" as="sourcePoint" />
            <mxPoint x="240.54" y="210.9899999999999" as="targetPoint" />
          </mxGeometry>
        </mxCell>
        <mxCell id="7dbq3NUYPPFsFOSEUiva-3" value="" style="edgeStyle=orthogonalEdgeStyle;fontSize=12;html=1;endArrow=ERzeroToMany;endFill=1;fontFamily=Helvetica;fontColor=default;startSize=23;rounded=1;startArrow=ERone;startFill=0;entryX=0;entryY=0.5;entryDx=0;entryDy=0;exitX=0.486;exitY=0.981;exitDx=0;exitDy=0;exitPerimeter=0;labelBackgroundColor=none;strokeColor=#457B9D;" parent="WIyWlLk6GJQsqaUBKTNV-1" source="TtT6zjxbn2nU0OrpLk1x-159" target="TtT6zjxbn2nU0OrpLk1x-343" edge="1">
          <mxGeometry width="100" height="100" relative="1" as="geometry">
            <mxPoint x="640" y="510" as="sourcePoint" />
            <mxPoint x="370" y="449" as="targetPoint" />
            <Array as="points">
              <mxPoint x="238" y="625" />
            </Array>
          </mxGeometry>
        </mxCell>
        <mxCell id="7dbq3NUYPPFsFOSEUiva-4" value="" style="fontSize=12;html=1;endArrow=ERzeroToMany;endFill=0;fontFamily=Helvetica;fontColor=default;startSize=23;rounded=1;startArrow=ERone;startFill=0;exitX=0.496;exitY=1.004;exitDx=0;exitDy=0;exitPerimeter=0;entryX=0.5;entryY=0;entryDx=0;entryDy=0;labelBackgroundColor=none;strokeColor=#457B9D;" parent="WIyWlLk6GJQsqaUBKTNV-1" source="TtT6zjxbn2nU0OrpLk1x-439" target="TtT6zjxbn2nU0OrpLk1x-336" edge="1">
          <mxGeometry width="100" height="100" relative="1" as="geometry">
            <mxPoint x="390" y="470" as="sourcePoint" />
            <mxPoint x="390" y="360" as="targetPoint" />
          </mxGeometry>
        </mxCell>
      </root>
    </mxGraphModel>
  </diagram>
</mxfile>
